<svg width="12" height="12" viewBox="0 0 12 12" fill="none" xmlns="http://www.w3.org/2000/svg">
<path d="M6 8C6.93922 8 8.37609 8.23782 9.5653 8.71332C10.1595 8.95093 10.6605 9.23559 11.0048 9.55371C11.3456 9.86852 11.5 10.1825 11.5 10.5V11.5H0.5V10.5C0.5 10.1825 0.65441 9.86852 0.995184 9.55371C1.33955 9.23559 1.84047 8.95093 2.4347 8.71332C3.62391 8.23782 5.06078 8 6 8ZM6 5.5C5.33696 5.5 4.70107 5.23661 4.23223 4.76777C3.76339 4.29893 3.5 3.66304 3.5 3C3.5 2.33696 3.76339 1.70107 4.23223 1.23223C4.70107 0.763392 5.33696 0.5 6 0.5C6.66304 0.5 7.29893 0.763392 7.76777 1.23223C8.23661 1.70107 8.5 2.33696 8.5 3C8.5 3.66304 8.23661 4.29893 7.76777 4.76777C7.29893 5.23661 6.66304 5.5 6 5.5Z" stroke="#404040"/>
</svg>
