<svg width="15" height="15" viewBox="0 0 15 15" fill="none" xmlns="http://www.w3.org/2000/svg">
<path d="M5.625 6.25V7.5H4.375V6.25H5.625ZM8.125 6.25V7.5H6.875V6.25H8.125ZM10.625 6.25V7.5H9.375V6.25H10.625ZM11.875 1.875C12.2065 1.875 12.5245 2.0067 12.7589 2.24112C12.9933 2.47554 13.125 2.79348 13.125 3.125V11.875C13.125 12.2065 12.9933 12.5245 12.7589 12.7589C12.5245 12.9933 12.2065 13.125 11.875 13.125H3.125C2.43125 13.125 1.875 12.5625 1.875 11.875V3.125C1.875 2.79348 2.0067 2.47554 2.24112 2.24112C2.47554 2.0067 2.79348 1.875 3.125 1.875H3.75V0.625H5V1.875H10V0.625H11.25V1.875H11.875ZM11.875 11.875V5H3.125V11.875H11.875ZM5.625 8.75V10H4.375V8.75H5.625ZM8.125 8.75V10H6.875V8.75H8.125ZM10.625 8.75V10H9.375V8.75H10.625Z" fill="#90BFD3"/>
</svg>
