<svg width="118" height="44" viewBox="0 0 118 44" fill="none" xmlns="http://www.w3.org/2000/svg">
<path d="M0 5.85714V0H12.8857V35.1429H19.9143V41H0V35.1429H5.85714V5.85714H0Z" fill="#404040"/>
<path d="M17.5715 7.02857V0C30.6915 0 32.8001 8.4695 32.8001 12.8857C32.8001 24.1314 22.6477 26.9429 17.5715 26.9429V19.9143C28.1144 19.9143 28.1144 7.02857 17.5715 7.02857Z" fill="#404040"/>
<path d="M44.7217 11.1504C46.3799 11.1504 47.5898 11.5078 48.3516 12.2227C49.1133 12.9316 49.4941 13.9102 49.4941 15.1582C49.4941 15.7207 49.4092 16.2598 49.2393 16.7754C49.0693 17.2852 48.791 17.7393 48.4043 18.1377C48.0234 18.5361 47.5137 18.8525 46.875 19.0869C46.2363 19.3154 45.4482 19.4297 44.5107 19.4297H43.3418V24H40.6172V11.1504H44.7217ZM44.5811 13.3828H43.3418V17.1973H44.2383C44.748 17.1973 45.1904 17.1299 45.5654 16.9951C45.9404 16.8604 46.2305 16.6494 46.4355 16.3623C46.6406 16.0752 46.7432 15.7061 46.7432 15.2549C46.7432 14.6221 46.5674 14.1533 46.2158 13.8486C45.8643 13.5381 45.3193 13.3828 44.5811 13.3828ZM55.7607 13.9893C56.6689 13.9893 57.4512 14.165 58.1074 14.5166C58.7637 14.8623 59.2705 15.3662 59.6279 16.0283C59.9854 16.6904 60.1641 17.499 60.1641 18.4541V19.7549H53.8271C53.8564 20.5107 54.082 21.1055 54.5039 21.5391C54.9316 21.9668 55.5234 22.1807 56.2793 22.1807C56.9062 22.1807 57.4805 22.1162 58.002 21.9873C58.5234 21.8584 59.0596 21.665 59.6104 21.4072V23.4814C59.124 23.7217 58.6143 23.8975 58.0811 24.0088C57.5537 24.1201 56.9121 24.1758 56.1562 24.1758C55.1719 24.1758 54.2988 23.9941 53.5371 23.6309C52.7812 23.2676 52.1865 22.7139 51.7529 21.9697C51.3252 21.2256 51.1113 20.2881 51.1113 19.1572C51.1113 18.0088 51.3047 17.0537 51.6914 16.292C52.084 15.5244 52.6289 14.9502 53.3262 14.5693C54.0234 14.1826 54.835 13.9893 55.7607 13.9893ZM55.7783 15.8965C55.2568 15.8965 54.8232 16.0635 54.4775 16.3975C54.1377 16.7314 53.9414 17.2559 53.8887 17.9707H57.6504C57.6445 17.5723 57.5713 17.2178 57.4307 16.9072C57.2959 16.5967 57.0908 16.3506 56.8154 16.1689C56.5459 15.9873 56.2002 15.8965 55.7783 15.8965ZM71.1416 24H68.4609V16.1865H65.9912C65.8682 17.6279 65.7217 18.8555 65.5518 19.8691C65.3818 20.8828 65.165 21.709 64.9014 22.3477C64.6377 22.9805 64.3096 23.4434 63.917 23.7363C63.5244 24.0293 63.041 24.1758 62.4668 24.1758C62.1504 24.1758 61.8662 24.1523 61.6143 24.1055C61.3682 24.0586 61.1426 23.9883 60.9375 23.8945V21.75C61.0664 21.8027 61.2041 21.8467 61.3506 21.8818C61.4971 21.9111 61.6465 21.9258 61.7988 21.9258C61.9688 21.9258 62.1299 21.8584 62.2822 21.7236C62.4346 21.5889 62.5781 21.3574 62.7129 21.0293C62.8477 20.6953 62.9736 20.2354 63.0908 19.6494C63.2139 19.0635 63.3252 18.3223 63.4248 17.4258C63.5244 16.5293 63.6182 15.4453 63.7061 14.1738H71.1416V24ZM76.6436 17.9707H78.5332C79.541 17.9707 80.373 18.0762 81.0293 18.2871C81.6855 18.498 82.1748 18.8203 82.4971 19.2539C82.8193 19.6816 82.9805 20.2207 82.9805 20.8711C82.9805 21.5039 82.834 22.0547 82.541 22.5234C82.248 22.9922 81.7822 23.3555 81.1436 23.6133C80.5049 23.8711 79.6699 24 78.6387 24H73.9629V14.1738H76.6436V17.9707ZM80.2998 20.9062C80.2998 20.5254 80.1475 20.25 79.8428 20.0801C79.5381 19.9102 79.084 19.8252 78.4805 19.8252H76.6436V22.1455H78.5156C79.0371 22.1455 79.4648 22.0518 79.7988 21.8643C80.1328 21.6709 80.2998 21.3516 80.2998 20.9062ZM89.0713 13.9893C89.9795 13.9893 90.7617 14.165 91.418 14.5166C92.0742 14.8623 92.5811 15.3662 92.9385 16.0283C93.2959 16.6904 93.4746 17.499 93.4746 18.4541V19.7549H87.1377C87.167 20.5107 87.3926 21.1055 87.8145 21.5391C88.2422 21.9668 88.834 22.1807 89.5898 22.1807C90.2168 22.1807 90.791 22.1162 91.3125 21.9873C91.834 21.8584 92.3701 21.665 92.9209 21.4072V23.4814C92.4346 23.7217 91.9248 23.8975 91.3916 24.0088C90.8643 24.1201 90.2227 24.1758 89.4668 24.1758C88.4824 24.1758 87.6094 23.9941 86.8477 23.6309C86.0918 23.2676 85.4971 22.7139 85.0635 21.9697C84.6357 21.2256 84.4219 20.2881 84.4219 19.1572C84.4219 18.0088 84.6152 17.0537 85.002 16.292C85.3945 15.5244 85.9395 14.9502 86.6367 14.5693C87.334 14.1826 88.1455 13.9893 89.0713 13.9893ZM89.0889 15.8965C88.5674 15.8965 88.1338 16.0635 87.7881 16.3975C87.4482 16.7314 87.252 17.2559 87.1992 17.9707H90.9609C90.9551 17.5723 90.8818 17.2178 90.7412 16.9072C90.6064 16.5967 90.4014 16.3506 90.126 16.1689C89.8564 15.9873 89.5107 15.8965 89.0889 15.8965ZM102.835 10.3242V14.1211C103.972 14.2148 104.93 14.4814 105.709 14.9209C106.488 15.3545 107.08 15.9287 107.484 16.6436C107.889 17.3525 108.091 18.167 108.091 19.0869C108.091 20.001 107.895 20.8154 107.502 21.5303C107.115 22.2451 106.532 22.8223 105.753 23.2617C104.979 23.7012 104.007 23.9707 102.835 24.0703V28.3242H100.348V24.0703C99.2168 23.9648 98.2588 23.6924 97.4736 23.2529C96.6885 22.8076 96.0879 22.2305 95.6719 21.5215C95.2617 20.8066 95.0566 19.9951 95.0566 19.0869C95.0566 18.1494 95.2471 17.3232 95.6279 16.6084C96.0088 15.8877 96.5889 15.3135 97.3682 14.8857C98.1533 14.4521 99.1465 14.1973 100.348 14.1211V10.3242H102.835ZM100.348 16.1338C99.8262 16.2041 99.375 16.374 98.9941 16.6436C98.6191 16.9131 98.3291 17.2588 98.124 17.6807C97.9189 18.0967 97.8164 18.5654 97.8164 19.0869C97.8164 19.6201 97.9131 20.0977 98.1064 20.5195C98.3057 20.9355 98.5928 21.2754 98.9678 21.5391C99.3486 21.8027 99.8086 21.9697 100.348 22.04V16.1338ZM102.835 16.1689V22.04C103.368 21.9697 103.819 21.8027 104.188 21.5391C104.563 21.2754 104.848 20.9355 105.041 20.5195C105.24 20.0977 105.34 19.6201 105.34 19.0869C105.34 18.3018 105.114 17.6455 104.663 17.1182C104.218 16.585 103.608 16.2686 102.835 16.1689ZM51.1289 42.5244H48.7207V39H40.4062V29.1738H43.0869V36.9873H47.0068V29.1738H49.6963V37.04H51.1289V42.5244ZM56.8506 28.9893C57.7588 28.9893 58.541 29.165 59.1973 29.5166C59.8535 29.8623 60.3604 30.3662 60.7178 31.0283C61.0752 31.6904 61.2539 32.499 61.2539 33.4541V34.7549H54.917C54.9463 35.5107 55.1719 36.1055 55.5938 36.5391C56.0215 36.9668 56.6133 37.1807 57.3691 37.1807C57.9961 37.1807 58.5703 37.1162 59.0918 36.9873C59.6133 36.8584 60.1494 36.665 60.7002 36.4072V38.4814C60.2139 38.7217 59.7041 38.8975 59.1709 39.0088C58.6436 39.1201 58.002 39.1758 57.2461 39.1758C56.2617 39.1758 55.3887 38.9941 54.627 38.6309C53.8711 38.2676 53.2764 37.7139 52.8428 36.9697C52.415 36.2256 52.2012 35.2881 52.2012 34.1572C52.2012 33.0088 52.3945 32.0537 52.7812 31.292C53.1738 30.5244 53.7188 29.9502 54.416 29.5693C55.1133 29.1826 55.9248 28.9893 56.8506 28.9893ZM56.8682 30.8965C56.3467 30.8965 55.9131 31.0635 55.5674 31.3975C55.2275 31.7314 55.0312 32.2559 54.9785 32.9707H58.7402C58.7344 32.5723 58.6611 32.2178 58.5205 31.9072C58.3857 31.5967 58.1807 31.3506 57.9053 31.1689C57.6357 30.9873 57.29 30.8965 56.8682 30.8965ZM66.1143 29.1738V32.9531H69.8584V29.1738H72.5391V39H69.8584V34.9482H66.1143V39H63.4336V29.1738H66.1143ZM83.4814 31.1865H80.2646V39H77.584V31.1865H74.3584V29.1738H83.4814V31.1865ZM90.7852 28.9893C91.8926 28.9893 92.7861 29.4199 93.4658 30.2812C94.1514 31.1426 94.4941 32.4053 94.4941 34.0693C94.4941 35.1826 94.333 36.1201 94.0107 36.8818C93.6885 37.6377 93.2432 38.209 92.6748 38.5957C92.1064 38.9824 91.4531 39.1758 90.7148 39.1758C90.2402 39.1758 89.833 39.1172 89.4932 39C89.1533 38.877 88.8633 38.7217 88.623 38.5342C88.3828 38.3408 88.1748 38.1357 87.999 37.9189H87.8584C87.9053 38.1533 87.9404 38.3936 87.9639 38.6396C87.9873 38.8857 87.999 39.126 87.999 39.3604V43.3242H85.3184V29.1738H87.498L87.876 30.4482H87.999C88.1748 30.1846 88.3887 29.9414 88.6406 29.7188C88.8926 29.4961 89.1943 29.3203 89.5459 29.1914C89.9033 29.0566 90.3164 28.9893 90.7852 28.9893ZM89.9238 31.1338C89.4551 31.1338 89.083 31.2305 88.8076 31.4238C88.5322 31.6172 88.3301 31.9072 88.2012 32.2939C88.0781 32.6807 88.0107 33.1699 87.999 33.7617V34.0518C87.999 34.6846 88.0576 35.2207 88.1748 35.6602C88.2979 36.0996 88.5 36.4336 88.7812 36.6621C89.0684 36.8906 89.4609 37.0049 89.959 37.0049C90.3691 37.0049 90.7061 36.8906 90.9697 36.6621C91.2334 36.4336 91.4297 36.0996 91.5586 35.6602C91.6934 35.2148 91.7607 34.6729 91.7607 34.0342C91.7607 33.0732 91.6113 32.3496 91.3125 31.8633C91.0137 31.377 90.5508 31.1338 89.9238 31.1338Z" fill="#404040"/>
</svg>
